<mxfile host="65bd71144e">
    <diagram id="FLo_XJS_H7bYYv2zY9sa" name="Página-1">
        <mxGraphModel dx="737" dy="470" grid="0" gridSize="10" guides="1" tooltips="1" connect="1" arrows="1" fold="1" page="1" pageScale="1" pageWidth="827" pageHeight="1169" background="#FFFFFF" math="0" shadow="0">
            <root>
                <mxCell id="0"/>
                <mxCell id="1" parent="0"/>
                <mxCell id="4" style="edgeStyle=none;html=1;exitX=0.75;exitY=0;exitDx=0;exitDy=0;endArrow=circle;endFill=0;rounded=0;strokeColor=#000000;" edge="1" parent="1" source="2">
                    <mxGeometry relative="1" as="geometry">
                        <mxPoint x="300" y="120" as="targetPoint"/>
                    </mxGeometry>
                </mxCell>
                <mxCell id="5" style="edgeStyle=none;html=1;exitX=0.25;exitY=0;exitDx=0;exitDy=0;endArrow=oval;endFill=1;strokeWidth=1;endSize=14;rounded=0;fontColor=#0D0D0D;spacing=4;strokeColor=#000000;" edge="1" parent="1" source="2">
                    <mxGeometry relative="1" as="geometry">
                        <mxPoint x="240" y="110" as="targetPoint"/>
                    </mxGeometry>
                </mxCell>
                <mxCell id="11" style="edgeStyle=none;html=1;exitX=0.5;exitY=1;exitDx=0;exitDy=0;entryX=0;entryY=0;entryDx=37;entryDy=0;entryPerimeter=0;fontSize=13;fontColor=#FFFFFF;startArrow=none;startFill=0;endArrow=none;endFill=0;endSize=14;strokeColor=#000000;strokeWidth=1;" edge="1" parent="1" source="2" target="10">
                    <mxGeometry relative="1" as="geometry"/>
                </mxCell>
                <mxCell id="2" value="&lt;font color=&quot;#000000&quot;&gt;Cliente&lt;/font&gt;" style="rounded=1;whiteSpace=wrap;html=1;fillColor=#F9F7ED;strokeColor=#36393d;strokeWidth=2;" vertex="1" parent="1">
                    <mxGeometry x="210" y="180" width="120" height="40" as="geometry"/>
                </mxCell>
                <mxCell id="3" value="&lt;div&gt;&lt;span&gt;&lt;font color=&quot;#000000&quot; style=&quot;font-size: 13px&quot;&gt;3.3 - DER usando a notação Chen&lt;/font&gt;&lt;/span&gt;&lt;/div&gt;" style="shape=note;whiteSpace=wrap;html=1;backgroundOutline=1;darkOpacity=0.05;align=left;rounded=0;fillColor=#FFFFFF;strokeWidth=2;strokeColor=#000000;" vertex="1" parent="1">
                    <mxGeometry x="40" y="40" width="150" height="60" as="geometry"/>
                </mxCell>
                <mxCell id="6" value="&lt;font style=&quot;font-size: 13px;&quot;&gt;código&lt;br style=&quot;font-size: 13px;&quot;&gt;&lt;/font&gt;" style="text;html=1;align=center;verticalAlign=middle;resizable=0;points=[];autosize=1;strokeColor=none;fillColor=none;fontColor=#000000;fontSize=13;" vertex="1" parent="1">
                    <mxGeometry x="211" y="80" width="48" height="20" as="geometry"/>
                </mxCell>
                <mxCell id="7" value="&lt;font style=&quot;font-size: 13px&quot;&gt;contato&lt;br style=&quot;font-size: 13px&quot;&gt;&lt;/font&gt;" style="text;html=1;align=center;verticalAlign=middle;resizable=0;points=[];autosize=1;strokeColor=none;fillColor=none;fontColor=#000000;fontSize=13;" vertex="1" parent="1">
                    <mxGeometry x="277" y="100" width="53" height="20" as="geometry"/>
                </mxCell>
                <mxCell id="16" style="edgeStyle=none;html=1;exitX=0.5;exitY=1;exitDx=0;exitDy=0;exitPerimeter=0;entryX=0.5;entryY=0;entryDx=0;entryDy=0;fontSize=13;fontColor=#FFFFFF;startArrow=none;startFill=0;endArrow=none;endFill=0;endSize=14;strokeColor=#000000;strokeWidth=1;" edge="1" parent="1" source="10" target="14">
                    <mxGeometry relative="1" as="geometry"/>
                </mxCell>
                <mxCell id="17" style="edgeStyle=none;html=1;exitX=0.5;exitY=1;exitDx=0;exitDy=0;exitPerimeter=0;entryX=0.5;entryY=0;entryDx=0;entryDy=0;fontSize=13;fontColor=#FFFFFF;startArrow=none;startFill=0;endArrow=none;endFill=0;endSize=14;strokeColor=#000000;strokeWidth=1;" edge="1" parent="1" source="10" target="15">
                    <mxGeometry relative="1" as="geometry"/>
                </mxCell>
                <mxCell id="10" value="" style="verticalLabelPosition=bottom;verticalAlign=top;html=1;shape=mxgraph.basic.acute_triangle;dx=0.5;rounded=1;fontSize=13;fontColor=#FFFFFF;fillColor=#FFFFFF;strokeWidth=1;strokeColor=#000000;" vertex="1" parent="1">
                    <mxGeometry x="233" y="284" width="74" height="30" as="geometry"/>
                </mxCell>
                <mxCell id="18" style="edgeStyle=none;html=1;exitX=0.25;exitY=0;exitDx=0;exitDy=0;fontSize=13;fontColor=#FFFFFF;startArrow=none;startFill=0;endArrow=oval;endFill=0;endSize=14;strokeColor=#000000;strokeWidth=1;" edge="1" parent="1" source="14">
                    <mxGeometry relative="1" as="geometry">
                        <mxPoint x="154" y="352" as="targetPoint"/>
                    </mxGeometry>
                </mxCell>
                <mxCell id="19" style="edgeStyle=none;html=1;exitX=0.25;exitY=1;exitDx=0;exitDy=0;fontSize=13;fontColor=#FFFFFF;startArrow=none;startFill=0;endArrow=oval;endFill=0;endSize=14;strokeColor=#000000;strokeWidth=1;" edge="1" parent="1" source="14">
                    <mxGeometry relative="1" as="geometry">
                        <mxPoint x="154" y="503" as="targetPoint"/>
                    </mxGeometry>
                </mxCell>
                <mxCell id="20" style="edgeStyle=none;html=1;exitX=0.75;exitY=1;exitDx=0;exitDy=0;fontSize=13;fontColor=#FFFFFF;startArrow=none;startFill=0;endArrow=oval;endFill=1;endSize=14;strokeColor=#000000;strokeWidth=1;" edge="1" parent="1" source="14">
                    <mxGeometry relative="1" as="geometry">
                        <mxPoint x="214" y="509" as="targetPoint"/>
                    </mxGeometry>
                </mxCell>
                <mxCell id="21" style="edgeStyle=none;html=1;exitX=0;exitY=0.75;exitDx=0;exitDy=0;fontSize=13;fontColor=#FFFFFF;startArrow=none;startFill=0;endArrow=oval;endFill=0;endSize=14;strokeColor=#000000;strokeWidth=1;entryX=0.351;entryY=1.15;entryDx=0;entryDy=0;entryPerimeter=0;" edge="1" parent="1" source="14" target="28">
                    <mxGeometry relative="1" as="geometry">
                        <mxPoint x="82" y="443" as="targetPoint"/>
                    </mxGeometry>
                </mxCell>
                <mxCell id="14" value="&lt;span style=&quot;color: rgb(0 , 0 , 0) ; font-size: 12px&quot;&gt;Pessoa Física&lt;/span&gt;" style="rounded=1;whiteSpace=wrap;html=1;fontSize=13;fontColor=#FFFFFF;strokeColor=#000000;strokeWidth=2;fillColor=#F9F7ED;" vertex="1" parent="1">
                    <mxGeometry x="124" y="398" width="120" height="47" as="geometry"/>
                </mxCell>
                <mxCell id="23" style="edgeStyle=none;html=1;exitX=0.25;exitY=1;exitDx=0;exitDy=0;fontSize=13;fontColor=#FFFFFF;startArrow=none;startFill=0;endArrow=oval;endFill=1;endSize=14;strokeWidth=1;strokeColor=#000000;" edge="1" parent="1" source="15">
                    <mxGeometry relative="1" as="geometry">
                        <mxPoint x="316" y="507" as="targetPoint"/>
                    </mxGeometry>
                </mxCell>
                <mxCell id="24" style="edgeStyle=none;html=1;exitX=0.75;exitY=1;exitDx=0;exitDy=0;fontSize=13;fontColor=#FFFFFF;startArrow=none;startFill=0;endArrow=oval;endFill=0;endSize=14;strokeColor=#000000;strokeWidth=1;" edge="1" parent="1" source="15">
                    <mxGeometry relative="1" as="geometry">
                        <mxPoint x="376" y="508" as="targetPoint"/>
                    </mxGeometry>
                </mxCell>
                <mxCell id="15" value="&lt;font color=&quot;#000000&quot;&gt;&lt;span style=&quot;font-size: 12px&quot;&gt;Pessoa Jurídica&lt;/span&gt;&lt;/font&gt;" style="rounded=1;whiteSpace=wrap;html=1;fontSize=13;fontColor=#FFFFFF;strokeColor=#000000;strokeWidth=2;fillColor=#F9F7ED;" vertex="1" parent="1">
                    <mxGeometry x="286" y="398" width="120" height="47" as="geometry"/>
                </mxCell>
                <mxCell id="22" value="&lt;font style=&quot;font-size: 13px&quot;&gt;t&lt;br style=&quot;font-size: 13px&quot;&gt;&lt;/font&gt;" style="text;html=1;align=center;verticalAlign=middle;resizable=0;points=[];autosize=1;strokeColor=none;fillColor=none;fontColor=#000000;fontSize=13;" vertex="1" parent="1">
                    <mxGeometry x="277" y="266" width="14" height="20" as="geometry"/>
                </mxCell>
                <mxCell id="25" value="&lt;font style=&quot;font-size: 13px&quot;&gt;CIC&lt;br style=&quot;font-size: 13px&quot;&gt;&lt;/font&gt;" style="text;html=1;align=center;verticalAlign=middle;resizable=0;points=[];autosize=1;strokeColor=none;fillColor=none;fontColor=#000000;fontSize=13;" vertex="1" parent="1">
                    <mxGeometry x="204" y="518" width="32" height="20" as="geometry"/>
                </mxCell>
                <mxCell id="26" value="&lt;font style=&quot;font-size: 13px&quot;&gt;nome&lt;br style=&quot;font-size: 13px&quot;&gt;&lt;/font&gt;" style="text;html=1;align=center;verticalAlign=middle;resizable=0;points=[];autosize=1;strokeColor=none;fillColor=none;fontColor=#000000;fontSize=13;" vertex="1" parent="1">
                    <mxGeometry x="123" y="518" width="43" height="20" as="geometry"/>
                </mxCell>
                <mxCell id="27" value="&lt;font style=&quot;font-size: 13px&quot;&gt;data_nascimento&lt;br style=&quot;font-size: 13px&quot;&gt;&lt;/font&gt;" style="text;html=1;align=center;verticalAlign=middle;resizable=0;points=[];autosize=1;strokeColor=none;fillColor=none;fontColor=#000000;fontSize=13;" vertex="1" parent="1">
                    <mxGeometry x="99" y="321" width="109" height="20" as="geometry"/>
                </mxCell>
                <mxCell id="28" value="&lt;font style=&quot;font-size: 13px&quot;&gt;sexo&lt;br style=&quot;font-size: 13px&quot;&gt;&lt;/font&gt;" style="text;html=1;align=center;verticalAlign=middle;resizable=0;points=[];autosize=1;strokeColor=none;fillColor=none;fontColor=#000000;fontSize=13;" vertex="1" parent="1">
                    <mxGeometry x="65" y="411" width="37" height="20" as="geometry"/>
                </mxCell>
                <mxCell id="29" value="&lt;font style=&quot;font-size: 13px&quot;&gt;CGC&lt;br&gt;&lt;br style=&quot;font-size: 13px&quot;&gt;&lt;/font&gt;" style="text;html=1;align=center;verticalAlign=middle;resizable=0;points=[];autosize=1;strokeColor=none;fillColor=none;fontColor=#000000;fontSize=13;" vertex="1" parent="1">
                    <mxGeometry x="297" y="514" width="39" height="36" as="geometry"/>
                </mxCell>
                <mxCell id="30" value="&lt;font style=&quot;font-size: 13px&quot;&gt;razão_social&lt;br style=&quot;font-size: 13px&quot;&gt;&lt;/font&gt;" style="text;html=1;align=center;verticalAlign=middle;resizable=0;points=[];autosize=1;strokeColor=none;fillColor=none;fontColor=#000000;fontSize=13;" vertex="1" parent="1">
                    <mxGeometry x="344" y="518" width="83" height="20" as="geometry"/>
                </mxCell>
                <mxCell id="47" style="edgeStyle=none;sketch=0;html=1;exitX=0.25;exitY=0;exitDx=0;exitDy=0;fontSize=13;fontColor=#000000;startArrow=none;startFill=0;endArrow=oval;endFill=0;endSize=14;strokeColor=#000000;strokeWidth=1;" edge="1" parent="1" source="34">
                    <mxGeometry relative="1" as="geometry">
                        <mxPoint x="541" y="134" as="targetPoint"/>
                    </mxGeometry>
                </mxCell>
                <mxCell id="48" style="edgeStyle=none;sketch=0;html=1;exitX=0.75;exitY=0;exitDx=0;exitDy=0;fontSize=13;fontColor=#000000;startArrow=none;startFill=0;endArrow=oval;endFill=1;endSize=14;strokeColor=#000000;strokeWidth=1;" edge="1" parent="1" source="34">
                    <mxGeometry relative="1" as="geometry">
                        <mxPoint x="638" y="154" as="targetPoint"/>
                    </mxGeometry>
                </mxCell>
                <mxCell id="34" value="&lt;p style=&quot;margin: 0px ; margin-top: 4px ; text-align: center&quot;&gt;&lt;br&gt;&lt;b&gt;Cliente&lt;/b&gt;&lt;/p&gt;" style="verticalAlign=top;align=left;overflow=fill;fontSize=12;fontFamily=Helvetica;html=1;rounded=1;fontColor=#000000;strokeColor=#000000;strokeWidth=2;fillColor=#FFFFFF;shadow=0;sketch=0;glass=0;fillStyle=solid;" vertex="1" parent="1">
                    <mxGeometry x="491" y="184" width="195" height="124" as="geometry"/>
                </mxCell>
                <mxCell id="41" style="edgeStyle=none;sketch=0;html=1;exitX=1;exitY=0.25;exitDx=0;exitDy=0;fontSize=13;fontColor=#000000;startArrow=none;startFill=0;endArrow=oval;endFill=0;endSize=14;strokeColor=#000000;strokeWidth=1;" edge="1" parent="1" source="35">
                    <mxGeometry relative="1" as="geometry">
                        <mxPoint x="723" y="234" as="targetPoint"/>
                    </mxGeometry>
                </mxCell>
                <mxCell id="42" style="edgeStyle=none;sketch=0;html=1;exitX=1;exitY=0.75;exitDx=0;exitDy=0;fontSize=13;fontColor=#000000;startArrow=none;startFill=0;endArrow=oval;endFill=1;endSize=14;strokeColor=#000000;strokeWidth=1;" edge="1" parent="1" source="35">
                    <mxGeometry relative="1" as="geometry">
                        <mxPoint x="769" y="253" as="targetPoint"/>
                    </mxGeometry>
                </mxCell>
                <mxCell id="35" value="Pessoa Jurídica" style="html=1;rounded=1;fontSize=13;fontColor=#000000;strokeColor=#000000;strokeWidth=2;fillColor=#FFFFFF;" vertex="1" parent="1">
                    <mxGeometry x="509" y="224" width="159" height="37" as="geometry"/>
                </mxCell>
                <mxCell id="43" style="edgeStyle=none;sketch=0;html=1;exitX=1;exitY=0.75;exitDx=0;exitDy=0;fontSize=13;fontColor=#000000;startArrow=none;startFill=0;endArrow=oval;endFill=0;endSize=14;strokeColor=#000000;strokeWidth=1;" edge="1" parent="1" source="37">
                    <mxGeometry relative="1" as="geometry">
                        <mxPoint x="723" y="292" as="targetPoint"/>
                    </mxGeometry>
                </mxCell>
                <mxCell id="44" style="edgeStyle=none;sketch=0;html=1;exitX=0.75;exitY=1;exitDx=0;exitDy=0;fontSize=13;fontColor=#000000;startArrow=none;startFill=0;endArrow=oval;endFill=1;endSize=14;strokeColor=#000000;strokeWidth=1;" edge="1" parent="1" source="37">
                    <mxGeometry relative="1" as="geometry">
                        <mxPoint x="630" y="373" as="targetPoint"/>
                    </mxGeometry>
                </mxCell>
                <mxCell id="45" style="edgeStyle=none;sketch=0;html=1;exitX=0.5;exitY=1;exitDx=0;exitDy=0;fontSize=13;fontColor=#000000;startArrow=none;startFill=0;endArrow=oval;endFill=0;endSize=14;strokeColor=#000000;strokeWidth=1;" edge="1" parent="1" source="37">
                    <mxGeometry relative="1" as="geometry">
                        <mxPoint x="590" y="395" as="targetPoint"/>
                    </mxGeometry>
                </mxCell>
                <mxCell id="46" style="edgeStyle=none;sketch=0;html=1;exitX=0.25;exitY=1;exitDx=0;exitDy=0;fontSize=13;fontColor=#000000;startArrow=none;startFill=0;endArrow=oval;endFill=0;endSize=14;strokeColor=#000000;strokeWidth=1;" edge="1" parent="1" source="37">
                    <mxGeometry relative="1" as="geometry">
                        <mxPoint x="551" y="428" as="targetPoint"/>
                    </mxGeometry>
                </mxCell>
                <mxCell id="37" value="Pessoa Física" style="html=1;rounded=1;fontSize=13;fontColor=#000000;strokeColor=#000000;strokeWidth=2;fillColor=#FFFFFF;" vertex="1" parent="1">
                    <mxGeometry x="510" y="262" width="158" height="39" as="geometry"/>
                </mxCell>
                <mxCell id="40" value="&lt;div&gt;&lt;span&gt;&lt;font color=&quot;#000000&quot; style=&quot;font-size: 13px&quot;&gt;3.4 - DER usando a&amp;nbsp;&lt;/font&gt;&lt;/span&gt;&lt;/div&gt;&lt;div&gt;&lt;span&gt;&lt;font color=&quot;#000000&quot; style=&quot;font-size: 13px&quot;&gt;notação de Engenharia de informações&lt;/font&gt;&lt;/span&gt;&lt;/div&gt;" style="shape=note;whiteSpace=wrap;html=1;backgroundOutline=1;darkOpacity=0.05;align=left;rounded=0;fillColor=#FFFFFF;strokeWidth=2;strokeColor=#000000;" vertex="1" parent="1">
                    <mxGeometry x="625" y="40" width="176" height="73" as="geometry"/>
                </mxCell>
                <mxCell id="49" value="&lt;font style=&quot;font-size: 13px&quot;&gt;contato&lt;br style=&quot;font-size: 13px&quot;&gt;&lt;/font&gt;" style="text;html=1;align=center;verticalAlign=middle;resizable=0;points=[];autosize=1;strokeColor=none;fillColor=none;fontColor=#000000;fontSize=13;" vertex="1" parent="1">
                    <mxGeometry x="516" y="102" width="53" height="20" as="geometry"/>
                </mxCell>
                <mxCell id="50" value="&lt;font style=&quot;font-size: 13px;&quot;&gt;código&lt;br style=&quot;font-size: 13px;&quot;&gt;&lt;/font&gt;" style="text;html=1;align=center;verticalAlign=middle;resizable=0;points=[];autosize=1;strokeColor=none;fillColor=none;fontColor=#000000;fontSize=13;" vertex="1" parent="1">
                    <mxGeometry x="617" y="125" width="48" height="20" as="geometry"/>
                </mxCell>
                <mxCell id="51" value="&lt;font style=&quot;font-size: 13px&quot;&gt;razão_social&lt;br style=&quot;font-size: 13px&quot;&gt;&lt;/font&gt;" style="text;html=1;align=center;verticalAlign=middle;resizable=0;points=[];autosize=1;strokeColor=none;fillColor=none;fontColor=#000000;fontSize=13;" vertex="1" parent="1">
                    <mxGeometry x="698" y="207" width="83" height="20" as="geometry"/>
                </mxCell>
                <mxCell id="52" value="&lt;font style=&quot;font-size: 13px&quot;&gt;CGC&lt;br&gt;&lt;br style=&quot;font-size: 13px&quot;&gt;&lt;/font&gt;" style="text;html=1;align=center;verticalAlign=middle;resizable=0;points=[];autosize=1;strokeColor=none;fillColor=none;fontColor=#000000;fontSize=13;" vertex="1" parent="1">
                    <mxGeometry x="767" y="230" width="39" height="36" as="geometry"/>
                </mxCell>
                <mxCell id="53" value="&lt;font style=&quot;font-size: 13px&quot;&gt;CIC&lt;br style=&quot;font-size: 13px&quot;&gt;&lt;/font&gt;" style="text;html=1;align=center;verticalAlign=middle;resizable=0;points=[];autosize=1;strokeColor=none;fillColor=none;fontColor=#000000;fontSize=13;" vertex="1" parent="1">
                    <mxGeometry x="641" y="364" width="32" height="20" as="geometry"/>
                </mxCell>
                <mxCell id="54" value="&lt;font style=&quot;font-size: 13px&quot;&gt;sexo&lt;br style=&quot;font-size: 13px&quot;&gt;&lt;/font&gt;" style="text;html=1;align=center;verticalAlign=middle;resizable=0;points=[];autosize=1;strokeColor=none;fillColor=none;fontColor=#000000;fontSize=13;" vertex="1" parent="1">
                    <mxGeometry x="580" y="398" width="37" height="20" as="geometry"/>
                </mxCell>
                <mxCell id="55" value="&lt;font style=&quot;font-size: 13px&quot;&gt;data_nascimento&lt;br style=&quot;font-size: 13px&quot;&gt;&lt;/font&gt;" style="text;html=1;align=center;verticalAlign=middle;resizable=0;points=[];autosize=1;strokeColor=none;fillColor=none;fontColor=#000000;fontSize=13;" vertex="1" parent="1">
                    <mxGeometry x="502" y="434" width="109" height="20" as="geometry"/>
                </mxCell>
                <mxCell id="56" value="&lt;font style=&quot;font-size: 13px&quot;&gt;nome&lt;br style=&quot;font-size: 13px&quot;&gt;&lt;/font&gt;" style="text;html=1;align=center;verticalAlign=middle;resizable=0;points=[];autosize=1;strokeColor=none;fillColor=none;fontColor=#000000;fontSize=13;" vertex="1" parent="1">
                    <mxGeometry x="734" y="281" width="43" height="20" as="geometry"/>
                </mxCell>
                <mxCell id="57" value="&lt;div&gt;&lt;span&gt;&lt;font color=&quot;#000000&quot; style=&quot;font-size: 13px&quot;&gt;3.3 - DER usando a notação Chen&lt;/font&gt;&lt;/span&gt;&lt;/div&gt;" style="shape=note;whiteSpace=wrap;html=1;backgroundOutline=1;darkOpacity=0.05;align=left;rounded=0;fillColor=#FFFFFF;strokeWidth=2;strokeColor=#000000;" vertex="1" parent="1">
                    <mxGeometry x="50" y="50" width="150" height="60" as="geometry"/>
                </mxCell>
                <mxCell id="58" value="&lt;div style=&quot;font-size: 14px&quot;&gt;&lt;font color=&quot;#000000&quot; style=&quot;font-size: 14px&quot;&gt;Os dois modelos mostram o mesmo DER mas em&lt;/font&gt;&lt;/div&gt;&lt;div style=&quot;font-size: 14px&quot;&gt;&lt;font color=&quot;#000000&quot; style=&quot;font-size: 14px&quot;&gt;notações diferrentes. Neste diagrama a entidade cliente é&lt;/font&gt;&lt;/div&gt;&lt;div style=&quot;font-size: 14px&quot;&gt;&lt;font color=&quot;#000000&quot; style=&quot;font-size: 14px&quot;&gt;uma entidade generica, pessoa físca e juridica são&lt;/font&gt;&lt;/div&gt;&lt;div style=&quot;font-size: 14px&quot;&gt;&lt;font color=&quot;#000000&quot; style=&quot;font-size: 14px&quot;&gt;entidades especializadas. As entidades especializadas&lt;/font&gt;&lt;/div&gt;&lt;div style=&quot;font-size: 14px&quot;&gt;&lt;font color=&quot;#000000&quot; style=&quot;font-size: 14px&quot;&gt;herdam o código e contato da entidade generica.&lt;/font&gt;&lt;/div&gt;" style="shape=note;whiteSpace=wrap;html=1;backgroundOutline=1;darkOpacity=0.05;align=center;rounded=0;fillColor=#FFFFFF;strokeWidth=2;strokeColor=#000000;" vertex="1" parent="1">
                    <mxGeometry x="199" y="626" width="410" height="159" as="geometry"/>
                </mxCell>
            </root>
        </mxGraphModel>
    </diagram>
</mxfile>
